<?xml version="1.0" standalone="no"?>
<!DOCTYPE svg PUBLIC "-//W3C//DTD SVG 20010904//EN"
 "http://www.w3.org/TR/2001/REC-SVG-20010904/DTD/svg10.dtd">
<svg version="1.0" xmlns="http://www.w3.org/2000/svg"
 width="541.000000pt" height="541.000000pt" viewBox="0 0 541.000000 541.000000"
 preserveAspectRatio="xMidYMid meet">
<metadata>
Created by potrace 1.11, written by Peter Selinger 2001-2013
</metadata>
<g transform="translate(0.000000,541.000000) scale(0.100000,-0.100000)"
fill="#000000" stroke="none">
<path d="M326 5211 c-5 -8 94 -24 102 -16 2 2 1 8 -3 14 -7 13 -91 15 -99 2z"/>
<path d="M452 5178 c3 -8 35 -17 77 -22 46 -5 74 -13 78 -22 3 -9 21 -14 54
-14 33 0 51 -5 57 -16 5 -9 28 -18 53 -21 24 -3 47 -12 52 -19 4 -7 21 -16 39
-19 18 -4 38 -14 46 -21 7 -8 24 -14 37 -14 12 0 25 -7 29 -15 3 -8 14 -15 24
-15 11 0 31 -9 45 -20 14 -11 35 -20 46 -20 12 0 21 -6 21 -14 0 -14 21 -26
45 -26 8 0 29 -14 47 -30 18 -17 43 -33 56 -37 12 -3 27 -14 33 -24 5 -11 16
-19 24 -19 8 0 15 -7 15 -15 0 -8 9 -15 20 -15 11 0 20 -7 20 -15 0 -9 8 -18
18 -22 9 -3 24 -12 32 -19 61 -53 117 -114 170 -184 14 -18 33 -40 43 -49 9
-8 17 -28 17 -43 0 -17 5 -28 14 -28 23 0 37 -62 16 -75 -5 -3 -35 -10 -66
-15 -48 -8 -63 -6 -100 11 -24 11 -44 24 -44 29 0 6 -7 10 -15 10 -8 0 -19 9
-25 20 -6 12 -21 20 -35 20 -14 0 -25 6 -25 13 -1 6 -22 22 -48 34 -26 12 -68
31 -93 42 -25 12 -53 21 -62 21 -9 0 -17 7 -17 15 0 11 -11 15 -38 15 -26 0
-45 7 -57 20 -12 13 -31 20 -54 20 -20 0 -45 6 -56 14 -11 7 -46 16 -78 20
-32 4 -70 14 -85 22 -15 8 -56 14 -92 14 -36 0 -90 7 -120 15 -76 20 -297 20
-336 0 -17 -9 -56 -15 -96 -15 -51 0 -68 -3 -68 -14 0 -11 52 -14 281 -18 249
-4 283 -6 294 -21 9 -13 28 -17 81 -17 52 0 76 -5 99 -20 17 -11 46 -20 66
-20 20 0 42 -6 48 -14 6 -7 30 -16 52 -20 23 -4 51 -13 62 -21 12 -8 28 -15
37 -15 8 -1 33 -9 55 -20 22 -11 46 -19 53 -20 7 0 15 -7 18 -15 4 -8 14 -15
24 -15 29 0 50 -11 50 -26 0 -8 7 -14 16 -14 9 0 27 -9 41 -20 14 -11 32 -20
39 -20 9 0 14 -11 14 -30 0 -26 -4 -30 -37 -36 -21 -3 -48 -12 -60 -20 -12 -8
-34 -14 -47 -14 -15 0 -30 -8 -36 -20 -7 -13 -21 -20 -39 -20 -16 0 -31 -7
-34 -14 -3 -8 -22 -18 -41 -21 -19 -4 -37 -13 -40 -21 -3 -8 -15 -14 -26 -14
-11 0 -23 -7 -26 -15 -4 -8 -12 -15 -19 -15 -7 0 -24 -9 -38 -20 -14 -11 -32
-20 -41 -20 -9 0 -16 -7 -16 -15 0 -9 -7 -18 -16 -22 -9 -3 -33 -21 -53 -40
-20 -19 -46 -41 -58 -50 -13 -8 -23 -21 -23 -29 0 -7 -9 -18 -20 -24 -11 -6
-20 -17 -20 -25 0 -8 -7 -15 -15 -15 -8 0 -15 -7 -15 -15 0 -9 -7 -26 -15 -39
-14 -21 -37 -105 -36 -136 0 -46 24 -130 37 -130 8 0 14 -9 14 -20 0 -11 7
-20 15 -20 7 0 18 -6 22 -12 4 -7 18 -19 31 -25 39 -23 57 -31 72 -37 8 -3 22
-10 30 -15 34 -22 121 -43 205 -52 50 -5 92 -15 97 -22 11 -18 439 -17 461 1
9 8 52 16 99 19 46 3 93 11 105 19 12 8 37 15 55 16 l33 3 3 -82 c2 -56 7 -85
17 -93 9 -7 15 -29 15 -50 0 -21 6 -41 13 -43 8 -4 6 -6 -4 -6 -25 -1 -79 29
-79 45 0 10 -13 14 -50 14 -58 0 -54 7 -69 -145 -16 -155 -33 -249 -48 -258
-7 -5 -13 -26 -13 -50 0 -26 -8 -51 -20 -67 -11 -14 -20 -41 -20 -61 0 -23 -6
-39 -14 -42 -8 -3 -18 -26 -21 -51 -5 -29 -12 -46 -21 -46 -9 0 -14 -12 -14
-34 0 -18 -7 -39 -15 -46 -7 -6 -17 -32 -21 -56 -4 -28 -11 -44 -20 -44 -9 0
-14 -11 -14 -33 0 -21 -7 -36 -20 -45 -12 -7 -20 -23 -20 -41 0 -16 -6 -31
-15 -35 -8 -3 -15 -13 -15 -23 0 -10 -9 -33 -20 -51 -11 -18 -20 -41 -20 -52
0 -10 -6 -25 -14 -32 -7 -8 -17 -29 -21 -47 -4 -18 -13 -35 -21 -38 -8 -3 -14
-18 -14 -34 0 -18 -7 -32 -20 -39 -13 -7 -20 -21 -20 -40 0 -19 -5 -30 -14
-30 -8 0 -17 -15 -20 -34 -4 -19 -13 -39 -21 -46 -8 -7 -15 -23 -15 -37 0 -13
-7 -26 -15 -29 -8 -3 -17 -21 -21 -39 -3 -19 -12 -36 -20 -39 -8 -3 -14 -17
-14 -31 0 -14 -9 -34 -20 -45 -11 -11 -20 -27 -20 -36 0 -9 -9 -27 -20 -41
-11 -14 -20 -33 -20 -42 0 -9 -7 -25 -15 -35 -8 -11 -15 -28 -15 -37 0 -10 -3
-19 -8 -21 -10 -4 -62 -107 -62 -124 0 -8 -9 -22 -20 -31 -11 -10 -20 -27 -20
-38 0 -11 -7 -29 -15 -39 -19 -25 -19 -46 0 -46 8 0 15 6 15 14 0 7 9 16 20
19 11 3 20 12 20 21 0 9 7 16 15 16 8 0 15 5 15 11 0 11 32 55 65 90 8 9 15
21 15 27 0 7 7 12 15 12 8 0 15 8 15 18 0 11 9 27 20 37 11 10 20 26 20 37 0
10 7 18 15 18 8 0 17 14 21 35 3 20 12 35 20 35 8 0 14 9 14 19 0 10 6 21 14
24 8 3 17 19 21 36 4 17 13 31 21 31 8 0 14 8 14 18 0 10 9 28 20 40 11 12 20
28 20 36 0 7 6 16 14 19 8 3 17 19 21 35 3 17 13 33 21 36 8 3 14 17 14 31 0
14 7 28 15 31 8 4 15 15 15 25 0 10 9 28 20 39 11 11 20 27 20 35 0 8 9 23 20
32 11 10 20 28 20 40 0 13 4 23 9 23 5 0 16 18 24 39 9 22 21 42 27 46 5 3 10
14 10 24 0 10 6 24 14 30 8 7 18 26 21 42 4 16 13 29 21 29 9 0 14 11 14 33 0
21 7 36 20 45 11 7 20 22 20 33 0 11 9 32 20 46 11 14 20 34 20 43 0 10 7 23
15 30 8 7 15 23 15 36 0 13 4 24 10 24 5 0 15 21 21 46 7 25 18 48 25 51 8 3
14 19 14 37 0 20 7 35 20 44 12 7 20 23 20 38 0 14 6 32 14 39 7 8 17 31 21
51 8 44 32 84 51 84 8 0 14 -7 14 -16 0 -9 9 -18 20 -21 14 -4 20 -14 20 -34
0 -20 5 -29 16 -29 9 0 18 -9 21 -20 3 -11 11 -20 18 -20 8 0 17 -9 20 -20 6
-18 15 -20 90 -20 75 0 84 2 90 20 3 11 13 20 21 20 8 0 14 7 14 15 0 8 7 15
15 15 9 0 18 -7 21 -15 4 -8 11 -15 18 -15 6 0 17 -9 24 -20 7 -11 18 -20 26
-20 7 0 21 -9 31 -20 10 -11 24 -20 32 -20 7 0 13 -7 13 -15 0 -8 9 -15 19
-15 10 0 21 -6 24 -14 3 -8 19 -17 35 -21 17 -3 33 -13 36 -21 3 -8 17 -14 31
-14 27 0 46 -27 27 -39 -6 -3 -15 -26 -21 -50 -12 -55 -16 -58 -50 -38 -16 9
-36 17 -45 17 -9 0 -19 6 -22 14 -3 8 -18 18 -34 21 -16 3 -31 13 -34 21 -3 8
-19 14 -41 14 -23 0 -35 5 -35 14 0 29 -98 36 -123 8 -22 -24 -24 -120 -3
-128 8 -3 17 -25 21 -50 3 -24 13 -56 21 -72 7 -15 14 -50 14 -79 0 -29 7 -73
16 -99 34 -101 34 -1391 -1 -1558 -19 -94 -19 -116 0 -116 8 0 15 7 15 15 0 8
9 19 20 25 15 8 20 21 20 55 0 25 4 45 8 45 17 0 32 51 32 105 0 32 5 59 14
67 8 9 16 51 20 113 4 55 14 122 22 149 8 28 14 93 14 150 0 56 7 139 15 186
12 64 17 180 20 473 2 214 6 391 9 395 4 3 12 0 18 -6 7 -7 20 -12 30 -12 11
0 18 -7 18 -20 0 -11 7 -20 15 -20 8 0 24 -9 35 -20 11 -11 26 -20 33 -20 18
-1 57 -89 57 -128 0 -19 9 -45 20 -59 12 -15 20 -41 20 -63 0 -21 6 -43 14
-49 8 -7 17 -30 21 -51 4 -21 13 -44 21 -51 8 -6 14 -22 14 -34 0 -12 9 -34
20 -48 11 -14 20 -30 20 -35 0 -5 7 -12 15 -16 8 -3 15 -12 15 -21 0 -12 13
-15 65 -15 54 0 66 3 75 20 6 11 17 20 25 20 8 0 15 7 15 15 0 8 9 15 20 15
17 0 20 -7 20 -39 0 -22 5 -43 10 -46 6 -4 17 -21 26 -38 28 -60 45 -87 54
-87 5 0 12 -9 15 -20 3 -11 13 -20 21 -20 9 0 14 -11 14 -31 0 -17 9 -42 20
-56 14 -18 20 -41 20 -73 0 -28 6 -52 14 -59 7 -6 16 -30 20 -52 4 -23 13 -51
21 -62 8 -12 15 -34 15 -49 0 -14 6 -33 14 -40 7 -8 17 -30 21 -49 4 -19 13
-41 20 -49 7 -8 15 -32 19 -52 4 -24 13 -38 21 -38 10 0 15 -11 15 -34 0 -20
6 -36 14 -39 8 -3 17 -20 21 -37 4 -17 13 -34 21 -37 8 -3 14 -18 14 -34 0
-15 6 -32 13 -36 7 -4 18 -20 24 -35 7 -16 17 -28 23 -28 5 0 10 -9 10 -20 0
-10 9 -24 20 -30 12 -6 20 -21 20 -35 0 -14 8 -29 20 -35 11 -6 20 -17 20 -25
0 -8 7 -15 15 -15 8 0 15 -6 15 -14 0 -19 19 -31 31 -19 13 13 -1 73 -17 73
-9 0 -14 11 -14 29 0 16 -6 34 -14 40 -8 7 -17 30 -21 52 -4 22 -13 46 -21 53
-8 8 -14 27 -14 41 0 15 -9 38 -20 52 -13 17 -20 41 -20 68 0 24 -6 48 -14 54
-8 7 -17 35 -21 64 -4 29 -14 61 -21 72 -8 11 -14 40 -14 65 0 25 -6 57 -14
71 -8 15 -17 59 -21 98 l-7 71 50 0 c27 0 62 -6 77 -14 15 -8 59 -17 99 -21
39 -4 81 -13 93 -21 13 -8 48 -14 83 -14 67 0 110 -20 110 -51 0 -11 7 -19 14
-19 15 0 34 -29 57 -82 6 -16 17 -28 25 -28 8 0 14 -9 14 -20 0 -11 7 -20 15
-20 8 0 15 9 15 20 0 11 -6 20 -14 20 -8 0 -18 19 -25 44 -6 25 -15 48 -21 51
-5 3 -10 15 -10 26 0 18 9 19 188 19 103 0 192 -4 198 -9 13 -14 122 -19 531
-27 342 -7 363 -6 369 11 4 10 0 32 -8 49 -42 87 -58 125 -58 140 0 9 -7 16
-15 16 -8 0 -15 9 -15 20 0 11 -9 29 -20 40 -11 11 -20 28 -20 38 0 11 -9 27
-20 37 -11 10 -20 24 -20 30 0 7 -6 15 -14 18 -7 3 -16 17 -20 32 -7 26 -14
38 -48 76 -10 10 -18 28 -18 40 0 12 -8 23 -20 26 -11 3 -20 14 -20 24 0 11
-6 19 -14 19 -8 0 -17 13 -21 29 -3 16 -13 32 -21 35 -8 3 -14 10 -14 16 0 6
-16 25 -35 43 -19 17 -35 37 -35 42 0 6 -18 30 -40 53 -22 22 -40 46 -40 52 0
5 -6 10 -14 10 -7 0 -16 9 -19 20 -3 11 -12 20 -21 20 -9 0 -16 8 -16 20 0 11
-7 20 -15 20 -8 0 -15 7 -15 15 0 8 -8 15 -19 15 -10 0 -21 9 -24 20 -3 11
-12 20 -21 20 -9 0 -16 7 -16 15 0 8 -5 15 -10 15 -6 0 -30 18 -52 40 -23 22
-46 40 -52 40 -5 0 -16 7 -25 15 -49 48 -99 86 -118 91 -13 4 -23 12 -23 20 0
8 -8 14 -18 14 -11 0 -27 9 -37 20 -10 11 -26 20 -35 20 -10 0 -20 6 -23 14
-3 7 -18 16 -32 20 -15 4 -34 14 -42 21 -8 8 -25 15 -39 15 -14 0 -27 7 -30
15 -4 8 -16 15 -28 15 -11 0 -34 9 -51 20 -20 13 -47 20 -80 20 -34 0 -58 7
-75 20 -14 11 -31 20 -37 20 -16 0 -17 52 -2 67 6 6 13 39 16 73 5 50 3 65
-10 74 -8 7 -17 23 -19 36 -2 18 -12 27 -38 35 -19 5 -41 14 -47 18 -7 4 -21
4 -30 -1 -10 -5 -37 -13 -60 -17 -27 -4 -43 -12 -43 -21 0 -8 -6 -14 -14 -14
-8 0 -18 -9 -21 -20 -3 -11 -10 -20 -15 -20 -5 0 -12 -16 -16 -35 -3 -20 -12
-35 -20 -35 -8 0 -14 -9 -14 -20 0 -11 -7 -23 -15 -26 -8 -3 -17 -16 -21 -27
-14 -46 -84 -89 -84 -52 0 9 -7 18 -15 21 -8 4 -15 19 -15 35 0 15 -7 32 -16
37 -10 6 -18 31 -23 72 -4 35 -13 66 -19 68 -7 2 -12 25 -12 54 0 41 -3 51
-20 55 -11 3 -20 9 -20 14 0 5 -7 9 -15 9 -8 0 -15 -4 -15 -10 0 -5 -7 -10
-16 -10 -18 0 -39 -23 -54 -57 -5 -13 -16 -23 -25 -23 -8 0 -15 -7 -15 -15 0
-11 -13 -15 -54 -15 l-55 0 -6 48 c-4 26 -11 61 -15 77 -5 17 -12 56 -16 88
-3 32 -12 63 -19 70 -6 7 -14 32 -18 56 -3 25 -12 48 -21 53 -10 6 -16 23 -16
43 0 24 -5 35 -15 35 -8 0 -15 8 -15 18 0 9 -9 34 -20 55 -11 20 -20 43 -20
51 0 8 -6 16 -14 19 -8 3 -17 19 -21 35 -3 17 -13 33 -21 36 -8 3 -14 12 -14
19 0 8 -9 22 -20 32 -11 10 -20 26 -20 37 0 11 -7 18 -20 18 -11 0 -20 5 -20
11 0 16 -39 51 -73 66 -15 7 -27 17 -27 23 0 5 -12 10 -27 10 -14 0 -34 7 -44
16 -14 12 -43 16 -135 17 -130 2 -139 7 -105 56 12 16 21 35 21 43 0 7 7 21
15 32 8 10 17 39 20 65 4 25 11 56 17 68 6 12 8 34 5 50 -4 15 -11 57 -18 93
-6 36 -17 69 -25 73 -8 4 -14 17 -14 27 0 11 -9 24 -20 30 -11 6 -20 17 -20
25 0 8 -6 15 -14 15 -7 0 -16 9 -19 20 -3 11 -14 20 -25 20 -11 0 -25 7 -32
15 -7 8 -20 15 -30 15 -9 0 -29 9 -43 20 -15 12 -40 20 -65 20 -22 0 -53 7
-68 15 -18 9 -56 15 -97 15 -80 0 -107 11 -107 45 0 25 -44 120 -60 130 -6 3
-10 15 -10 26 0 10 -7 19 -15 19 -9 0 -19 8 -22 17 -4 9 -14 24 -22 34 -9 9
-27 32 -40 51 -14 19 -40 45 -59 59 -19 13 -41 32 -50 42 -9 9 -22 17 -28 17
-6 0 -14 9 -17 20 -3 11 -12 20 -21 20 -9 0 -16 7 -16 15 0 8 -9 15 -20 15
-11 0 -20 5 -20 11 0 5 -16 17 -35 25 -19 8 -35 19 -35 24 0 6 -8 10 -19 10
-10 0 -21 9 -24 20 -3 13 -14 20 -30 20 -14 0 -27 6 -30 14 -3 8 -20 17 -37
21 -17 4 -34 13 -37 21 -3 8 -15 14 -28 14 -12 0 -28 7 -35 15 -7 8 -27 17
-46 21 -19 3 -34 12 -34 20 0 9 -12 14 -35 14 -22 0 -43 8 -55 20 -12 12 -33
20 -55 20 -23 0 -35 5 -35 14 0 8 -17 15 -49 19 -28 3 -63 13 -80 21 -39 20
-215 23 -209 4z m1196 -1131 l42 -27 0 -76 c0 -65 -3 -80 -22 -100 -13 -13
-29 -24 -36 -24 -7 0 -15 -6 -18 -14 -11 -30 -144 -30 -144 0 0 8 -9 14 -20
14 -11 0 -20 7 -20 15 0 9 -7 18 -15 21 -11 5 -15 23 -15 73 1 68 15 99 53
114 9 3 17 14 17 23 0 14 10 16 68 12 51 -3 77 -10 110 -31z m1402 -2222 c0
-16 -39 -36 -52 -28 -5 2 -8 13 -8 24 0 14 7 19 30 19 20 0 30 -5 30 -15z"/>
<path d="M3780 128 c0 -17 18 -44 24 -37 8 7 -5 49 -15 49 -5 0 -9 -6 -9 -12z"/>
</g>
</svg>
