<?xml version="1.0" encoding="UTF-8" standalone="no"?>
<!-- Created with Inkscape (http://www.inkscape.org/) -->
<svg
   xmlns:svg="http://www.w3.org/2000/svg"
   xmlns="http://www.w3.org/2000/svg"
   version="1.0"
   width="1133.8583"
   height="350.07874"
   id="svg2438">
  <defs
     id="defs2440" />
  <g
     transform="translate(574.40607,537.45725)"
     id="layer1">
    <g
       transform="translate(35.433078,35.385778)"
       id="g2522">
      <path
         d="M -574.40607,-258.15007 L -468.68999,-258.15007 C -447.62418,-258.15007 -431.24335,-260.09999 -418.76237,-263.99984 C -401.98713,-269.46257 -388.7247,-276.87523 -378.97139,-286.23412 C -366.096,-299.10952 -356.34638,-315.49403 -349.32445,-335.7784 C -343.47099,-352.17029 -340.73962,-372.05656 -340.73962,-395.07229 C -340.73962,-421.20643 -343.86171,-443.44071 -349.71517,-460.9974 C -355.95566,-478.94849 -364.92752,-494.15347 -376.63075,-506.24742 C -388.33398,-518.73209 -401.98713,-527.31323 -418.37164,-531.99452 C -430.85263,-535.51101 -448.40563,-537.45725 -471.42136,-537.45725 L -574.40607,-537.45725 L -574.40607,-258.15007 L -574.40607,-258.15007 z M -492.48717,-490.25731 C -469.85847,-490.25731 -454.2554,-489.47218 -446.4557,-487.52225 C -435.92095,-485.18898 -427.3435,-480.89104 -420.32157,-474.25983 C -413.69035,-468.01933 -408.22762,-459.04747 -404.71849,-447.34425 C -400.81496,-436.03543 -398.86504,-419.2565 -398.86504,-397.79997 C -398.86504,-375.96378 -400.81496,-359.18485 -404.71849,-346.70018 C -408.22762,-334.2192 -413.29963,-325.24365 -419.1494,-319.7846 C -425.39358,-314.32556 -432.80624,-310.42202 -441.77441,-308.08138 C -448.79635,-306.13145 -460.10885,-305.35001 -475.71193,-305.35001 L -517.84354,-305.35738 L -517.84354,-490.25731 L -492.48717,-490.25731 L -492.48717,-490.25731 z"
         id="_32888512"
         style="fill:#1381b5" />
      <path
         d="M -168.7114,-537.45725 L -228.39602,-537.45725 L -336.84346,-258.15007 L -277.15885,-258.15007 L -253.7524,-321.7419 L -141.79583,-321.7419 L -117.61161,-258.15007 L -56.754835,-258.15007 L -168.7114,-537.45725 z M -236.58643,-368.94184 L -198.74907,-472.31359 L -160.13027,-368.94184 L -236.58643,-368.94184 L -236.58643,-368.94184 z"
         id="_62323816"
         style="fill:#1381b5" />
      <path
         d="M 112.93274,-537.45725 L 53.244439,-537.45725 L -55.203005,-258.15007 L 4.4852945,-258.15007 L 27.891748,-321.7419 L 139.84463,-321.7419 L 164.02884,-258.15007 L 224.88562,-258.15007 L 112.93274,-537.45725 z M 45.054023,-368.94184 L 82.895071,-472.31359 L 121.51388,-368.94184 L 45.054023,-368.94184 L 45.054023,-368.94184 z"
         id="_71917560"
         style="fill:#1381b5" />
      <path
         d="M 254.9196,-258.15007 L 360.63568,-258.15007 C 381.70149,-258.15007 398.08601,-260.09999 410.56331,-263.99984 C 427.33855,-269.46257 440.60097,-276.87523 450.35428,-286.23412 C 463.22967,-299.10952 472.97929,-315.49403 480.00122,-335.7784 C 485.85468,-352.17029 488.58605,-372.05656 488.58605,-395.07229 C 488.58605,-421.20643 485.46396,-443.44071 479.6105,-460.9974 C 473.37001,-478.94849 464.39815,-494.15347 452.69492,-506.24742 C 440.9917,-518.73209 427.33855,-527.31323 410.95403,-531.99452 C 398.47673,-535.51101 380.92005,-537.45725 357.90431,-537.45725 L 254.9196,-537.45725 L 254.9196,-258.15007 L 254.9196,-258.15007 z M 336.83851,-490.25731 C 359.4672,-490.25731 375.07028,-489.47218 382.86997,-487.52225 C 393.40472,-485.18898 401.98586,-480.89104 409.00411,-474.25983 C 415.63532,-468.01933 421.09805,-459.04747 424.60718,-447.34425 C 428.51071,-436.03543 430.46064,-419.2565 430.46064,-397.79997 C 430.46064,-375.96378 428.51071,-359.18485 424.60718,-346.70018 C 421.09805,-334.2192 416.02604,-325.24365 410.17258,-319.7846 C 403.93578,-314.32556 396.52312,-310.42202 387.55126,-308.08138 C 380.52932,-306.13145 369.21682,-305.35001 353.61375,-305.35001 L 311.48213,-305.35738 L 311.48213,-490.25731 L 336.83851,-490.25731 L 336.83851,-490.25731 z"
         id="_71899344"
         style="fill:#1381b5" />
    </g>
  </g>
</svg>
